<?xml version="1.0" encoding="UTF-8" standalone="no"?>
<svg
   class="icon icon-tabler icon-tabler-photo"
   width="24"
   height="24"
   viewBox="0 0 24 24"
   stroke-width="2"
   stroke="currentColor"
   fill="none"
   stroke-linecap="round"
   stroke-linejoin="round"
   xmlns="http://www.w3.org/2000/svg">
  <path
     stroke="none"
     d="M0 0h24v24H0z"
     fill="none"
     id="path2"
     style="fill-rule:nonzero" />
  <path
     id="line4"
     d="m 15,8 h 0.01" />
  <path
     id="rect6"
     d="m 7,4 h 10 c 1.662,0 3,1.338 3,3 v 10 c 0,1.662 -1.338,3 -3,3 H 7 C 5.338,20 4,18.662 4,17 V 7 C 4,5.338 5.338,4 7,4 Z" />
  <path
     d="M4 15l4 -4a3 5 0 0 1 3 0l5 5"
     id="path8"
     style="fill-rule:nonzero" />
  <path
     d="M14 14l1 -1a3 5 0 0 1 3 0l2 2"
     id="path10"
     style="fill-rule:nonzero" />
</svg>
